<svg id="visual" viewBox="0 0 900 600" width="900" height="600" xmlns="http://www.w3.org/2000/svg" xmlns:xlink="http://www.w3.org/1999/xlink" version="1.1"><rect x="0" y="0" width="900" height="600" fill="#ffffff"></rect><defs><linearGradient id="grad1_0" x1="33.3%" y1="100%" x2="100%" y2="0%"><stop offset="20%" stop-color="#0066ff" stop-opacity="1"></stop><stop offset="80%" stop-color="#0066ff" stop-opacity="1"></stop></linearGradient></defs><defs><linearGradient id="grad1_1" x1="33.3%" y1="100%" x2="100%" y2="0%"><stop offset="20%" stop-color="#0066ff" stop-opacity="1"></stop><stop offset="80%" stop-color="#8b95ff" stop-opacity="1"></stop></linearGradient></defs><defs><linearGradient id="grad1_2" x1="33.3%" y1="100%" x2="100%" y2="0%"><stop offset="20%" stop-color="#cac9ff" stop-opacity="1"></stop><stop offset="80%" stop-color="#8b95ff" stop-opacity="1"></stop></linearGradient></defs><defs><linearGradient id="grad1_3" x1="33.3%" y1="100%" x2="100%" y2="0%"><stop offset="20%" stop-color="#cac9ff" stop-opacity="1"></stop><stop offset="80%" stop-color="#ffffff" stop-opacity="1"></stop></linearGradient></defs><defs><linearGradient id="grad2_0" x1="0%" y1="100%" x2="66.7%" y2="0%"><stop offset="20%" stop-color="#0066ff" stop-opacity="1"></stop><stop offset="80%" stop-color="#0066ff" stop-opacity="1"></stop></linearGradient></defs><defs><linearGradient id="grad2_1" x1="0%" y1="100%" x2="66.7%" y2="0%"><stop offset="20%" stop-color="#8b95ff" stop-opacity="1"></stop><stop offset="80%" stop-color="#0066ff" stop-opacity="1"></stop></linearGradient></defs><defs><linearGradient id="grad2_2" x1="0%" y1="100%" x2="66.7%" y2="0%"><stop offset="20%" stop-color="#8b95ff" stop-opacity="1"></stop><stop offset="80%" stop-color="#cac9ff" stop-opacity="1"></stop></linearGradient></defs><defs><linearGradient id="grad2_3" x1="0%" y1="100%" x2="66.7%" y2="0%"><stop offset="20%" stop-color="#ffffff" stop-opacity="1"></stop><stop offset="80%" stop-color="#cac9ff" stop-opacity="1"></stop></linearGradient></defs><g transform="translate(900, 600)"><path d="M-432.7 0C-399.1 -34.4 -365.6 -68.8 -359.5 -116.8C-353.4 -164.8 -374.8 -226.3 -350 -254.3C-325.2 -282.3 -254.2 -276.9 -209.3 -288C-164.3 -299.2 -145.5 -326.9 -115 -353.8C-84.4 -380.7 -42.2 -406.7 0 -432.7L0 0Z" fill="#e5e4ff"></path><path d="M-324.5 0C-299.3 -25.8 -274.2 -51.6 -269.6 -87.6C-265.1 -123.6 -281.1 -169.7 -262.5 -190.7C-243.9 -211.8 -190.6 -207.6 -156.9 -216C-123.2 -224.4 -109.1 -245.2 -86.2 -265.3C-63.3 -285.5 -31.7 -305 0 -324.5L0 0Z" fill="#acafff"></path><path d="M-216.3 0C-199.6 -17.2 -182.8 -34.4 -179.7 -58.4C-176.7 -82.4 -187.4 -113.1 -175 -127.2C-162.6 -141.2 -127.1 -138.4 -104.6 -144C-82.2 -149.6 -72.7 -163.5 -57.5 -176.9C-42.2 -190.3 -21.1 -203.3 0 -216.3L0 0Z" fill="#617dff"></path><path d="M-108.2 0C-99.8 -8.6 -91.4 -17.2 -89.9 -29.2C-88.4 -41.2 -93.7 -56.6 -87.5 -63.6C-81.3 -70.6 -63.5 -69.2 -52.3 -72C-41.1 -74.8 -36.4 -81.7 -28.7 -88.4C-21.1 -95.2 -10.6 -101.7 0 -108.2L0 0Z" fill="#0066ff"></path></g><g transform="translate(0, 0)"><path d="M432.7 0C419.6 41.8 406.6 83.7 394.7 128.2C382.8 172.8 372.1 220.1 343 249.2C313.9 278.4 266.3 289.4 230.4 317.1C194.5 344.9 170.2 389.4 133.7 411.5C97.2 433.5 48.6 433.1 0 432.7L0 0Z" fill="#e5e4ff"></path><path d="M324.5 0C314.7 31.4 304.9 62.8 296 96.2C287.1 129.6 279.1 165.1 257.3 186.9C235.4 208.8 199.8 217 172.8 237.9C145.9 258.7 127.6 292.1 100.3 308.6C72.9 325.2 36.5 324.8 0 324.5L0 0Z" fill="#acafff"></path><path d="M216.3 0C209.8 20.9 203.3 41.8 197.3 64.1C191.4 86.4 186.1 110 171.5 124.6C157 139.2 133.2 144.7 115.2 158.6C97.2 172.5 85.1 194.7 66.9 205.7C48.6 216.8 24.3 216.6 0 216.3L0 0Z" fill="#617dff"></path><path d="M108.2 0C104.9 10.5 101.6 20.9 98.7 32.1C95.7 43.2 93 55 85.8 62.3C78.5 69.6 66.6 72.3 57.6 79.3C48.6 86.2 42.5 97.4 33.4 102.9C24.3 108.4 12.2 108.3 0 108.2L0 0Z" fill="#0066ff"></path></g></svg>