<svg id="visual" viewBox="0 0 900 600" width="900" height="600" xmlns="http://www.w3.org/2000/svg" xmlns:xlink="http://www.w3.org/1999/xlink" version="1.1"><path d="M0 103L13.7 102C27.3 101 54.7 99 82 91C109.3 83 136.7 69 163.8 65C191 61 218 67 245.2 66C272.3 65 299.7 57 327 62C354.3 67 381.7 85 409 85C436.3 85 463.7 67 491 62C518.3 57 545.7 65 573 68C600.3 71 627.7 69 654.8 72C682 75 709 83 736.2 79C763.3 75 790.7 59 818 58C845.3 57 872.7 71 886.3 78L900 85L900 0L886.3 0C872.7 0 845.3 0 818 0C790.7 0 763.3 0 736.2 0C709 0 682 0 654.8 0C627.7 0 600.3 0 573 0C545.7 0 518.3 0 491 0C463.7 0 436.3 0 409 0C381.7 0 354.3 0 327 0C299.7 0 272.3 0 245.2 0C218 0 191 0 163.8 0C136.7 0 109.3 0 82 0C54.7 0 27.3 0 13.7 0L0 0Z" fill="#f6cd62"></path><path d="M0 253L13.7 245C27.3 237 54.7 221 82 226C109.3 231 136.7 257 163.8 262C191 267 218 251 245.2 244C272.3 237 299.7 239 327 232C354.3 225 381.7 209 409 200C436.3 191 463.7 189 491 204C518.3 219 545.7 251 573 254C600.3 257 627.7 231 654.8 221C682 211 709 217 736.2 222C763.3 227 790.7 231 818 240C845.3 249 872.7 263 886.3 270L900 277L900 83L886.3 76C872.7 69 845.3 55 818 56C790.7 57 763.3 73 736.2 77C709 81 682 73 654.8 70C627.7 67 600.3 69 573 66C545.7 63 518.3 55 491 60C463.7 65 436.3 83 409 83C381.7 83 354.3 65 327 60C299.7 55 272.3 63 245.2 64C218 65 191 59 163.8 63C136.7 67 109.3 81 82 89C54.7 97 27.3 99 13.7 100L0 101Z" fill="#f4c23f"></path><path d="M0 409L13.7 401C27.3 393 54.7 377 82 375C109.3 373 136.7 385 163.8 384C191 383 218 369 245.2 375C272.3 381 299.7 407 327 411C354.3 415 381.7 397 409 394C436.3 391 463.7 403 491 405C518.3 407 545.7 399 573 392C600.3 385 627.7 379 654.8 375C682 371 709 369 736.2 385C763.3 401 790.7 435 818 441C845.3 447 872.7 425 886.3 414L900 403L900 275L886.3 268C872.7 261 845.3 247 818 238C790.7 229 763.3 225 736.2 220C709 215 682 209 654.8 219C627.7 229 600.3 255 573 252C545.7 249 518.3 217 491 202C463.7 187 436.3 189 409 198C381.7 207 354.3 223 327 230C299.7 237 272.3 235 245.2 242C218 249 191 265 163.8 260C136.7 255 109.3 229 82 224C54.7 219 27.3 235 13.7 243L0 251Z" fill="#f2b705"></path><path d="M0 565L13.7 553C27.3 541 54.7 517 82 504C109.3 491 136.7 489 163.8 491C191 493 218 499 245.2 506C272.3 513 299.7 521 327 522C354.3 523 381.7 517 409 512C436.3 507 463.7 503 491 511C518.3 519 545.7 539 573 544C600.3 549 627.7 539 654.8 530C682 521 709 513 736.2 515C763.3 517 790.7 529 818 529C845.3 529 872.7 517 886.3 511L900 505L900 401L886.3 412C872.7 423 845.3 445 818 439C790.7 433 763.3 399 736.2 383C709 367 682 369 654.8 373C627.7 377 600.3 383 573 390C545.7 397 518.3 405 491 403C463.7 401 436.3 389 409 392C381.7 395 354.3 413 327 409C299.7 405 272.3 379 245.2 373C218 367 191 381 163.8 382C136.7 383 109.3 371 82 373C54.7 375 27.3 391 13.7 399L0 407Z" fill="#d09e06"></path><path d="M0 601L13.7 601C27.3 601 54.7 601 82 601C109.3 601 136.7 601 163.8 601C191 601 218 601 245.2 601C272.3 601 299.7 601 327 601C354.3 601 381.7 601 409 601C436.3 601 463.7 601 491 601C518.3 601 545.7 601 573 601C600.3 601 627.7 601 654.8 601C682 601 709 601 736.2 601C763.3 601 790.7 601 818 601C845.3 601 872.7 601 886.3 601L900 601L900 503L886.3 509C872.7 515 845.3 527 818 527C790.7 527 763.3 515 736.2 513C709 511 682 519 654.8 528C627.7 537 600.3 547 573 542C545.7 537 518.3 517 491 509C463.7 501 436.3 505 409 510C381.7 515 354.3 521 327 520C299.7 519 272.3 511 245.2 504C218 497 191 491 163.8 489C136.7 487 109.3 489 82 502C54.7 515 27.3 539 13.7 551L0 563Z" fill="#b08607"></path></svg>