<svg id="visual" viewBox="0 0 900 600" width="900" height="600" xmlns="http://www.w3.org/2000/svg" xmlns:xlink="http://www.w3.org/1999/xlink" version="1.1"><path d="M0 157L13.7 158C27.3 159 54.7 161 82 181C109.3 201 136.7 239 163.8 249C191 259 218 241 245.2 227C272.3 213 299.7 203 327 198C354.3 193 381.7 193 409 200C436.3 207 463.7 221 491 228C518.3 235 545.7 235 573 231C600.3 227 627.7 219 654.8 220C682 221 709 231 736.2 212C763.3 193 790.7 145 818 119C845.3 93 872.7 89 886.3 87L900 85L900 0L886.3 0C872.7 0 845.3 0 818 0C790.7 0 763.3 0 736.2 0C709 0 682 0 654.8 0C627.7 0 600.3 0 573 0C545.7 0 518.3 0 491 0C463.7 0 436.3 0 409 0C381.7 0 354.3 0 327 0C299.7 0 272.3 0 245.2 0C218 0 191 0 163.8 0C136.7 0 109.3 0 82 0C54.7 0 27.3 0 13.7 0L0 0Z" fill="#ffffff"></path><path d="M0 331L13.7 333C27.3 335 54.7 339 82 348C109.3 357 136.7 371 163.8 364C191 357 218 329 245.2 314C272.3 299 299.7 297 327 302C354.3 307 381.7 319 409 322C436.3 325 463.7 319 491 315C518.3 311 545.7 309 573 323C600.3 337 627.7 367 654.8 378C682 389 709 381 736.2 370C763.3 359 790.7 345 818 334C845.3 323 872.7 315 886.3 311L900 307L900 83L886.3 85C872.7 87 845.3 91 818 117C790.7 143 763.3 191 736.2 210C709 229 682 219 654.8 218C627.7 217 600.3 225 573 229C545.7 233 518.3 233 491 226C463.7 219 436.3 205 409 198C381.7 191 354.3 191 327 196C299.7 201 272.3 211 245.2 225C218 239 191 257 163.8 247C136.7 237 109.3 199 82 179C54.7 159 27.3 157 13.7 156L0 155Z" fill="#ffffff"></path><path d="M0 415L13.7 416C27.3 417 54.7 419 82 421C109.3 423 136.7 425 163.8 419C191 413 218 399 245.2 384C272.3 369 299.7 353 327 353C354.3 353 381.7 369 409 378C436.3 387 463.7 389 491 390C518.3 391 545.7 391 573 401C600.3 411 627.7 431 654.8 440C682 449 709 447 736.2 435C763.3 423 790.7 401 818 394C845.3 387 872.7 395 886.3 399L900 403L900 305L886.3 309C872.7 313 845.3 321 818 332C790.7 343 763.3 357 736.2 368C709 379 682 387 654.8 376C627.7 365 600.3 335 573 321C545.7 307 518.3 309 491 313C463.7 317 436.3 323 409 320C381.7 317 354.3 305 327 300C299.7 295 272.3 297 245.2 312C218 327 191 355 163.8 362C136.7 369 109.3 355 82 346C54.7 337 27.3 333 13.7 331L0 329Z" fill="#ffffff"></path><path d="M0 529L13.7 521C27.3 513 54.7 497 82 493C109.3 489 136.7 497 163.8 501C191 505 218 505 245.2 499C272.3 493 299.7 481 327 481C354.3 481 381.7 493 409 489C436.3 485 463.7 465 491 455C518.3 445 545.7 445 573 460C600.3 475 627.7 505 654.8 517C682 529 709 523 736.2 518C763.3 513 790.7 509 818 509C845.3 509 872.7 513 886.3 515L900 517L900 401L886.3 397C872.7 393 845.3 385 818 392C790.7 399 763.3 421 736.2 433C709 445 682 447 654.8 438C627.7 429 600.3 409 573 399C545.7 389 518.3 389 491 388C463.7 387 436.3 385 409 376C381.7 367 354.3 351 327 351C299.7 351 272.3 367 245.2 382C218 397 191 411 163.8 417C136.7 423 109.3 421 82 419C54.7 417 27.3 415 13.7 414L0 413Z" fill="#f6f6f6"></path><path d="M0 601L13.7 601C27.3 601 54.7 601 82 601C109.3 601 136.7 601 163.8 601C191 601 218 601 245.2 601C272.3 601 299.7 601 327 601C354.3 601 381.7 601 409 601C436.3 601 463.7 601 491 601C518.3 601 545.7 601 573 601C600.3 601 627.7 601 654.8 601C682 601 709 601 736.2 601C763.3 601 790.7 601 818 601C845.3 601 872.7 601 886.3 601L900 601L900 515L886.3 513C872.7 511 845.3 507 818 507C790.7 507 763.3 511 736.2 516C709 521 682 527 654.8 515C627.7 503 600.3 473 573 458C545.7 443 518.3 443 491 453C463.7 463 436.3 483 409 487C381.7 491 354.3 479 327 479C299.7 479 272.3 491 245.2 497C218 503 191 503 163.8 499C136.7 495 109.3 487 82 491C54.7 495 27.3 511 13.7 519L0 527Z" fill="#eeeeee"></path></svg>