<svg id="visual" viewBox="0 0 900 600" width="900" height="600" xmlns="http://www.w3.org/2000/svg" xmlns:xlink="http://www.w3.org/1999/xlink" version="1.1"><rect x="0" y="0" width="900" height="600" fill="#000"></rect><path d="M0 532L18.8 529C37.7 526 75.3 520 112.8 512.8C150.3 505.7 187.7 497.3 225.2 493.2C262.7 489 300.3 489 337.8 496.2C375.3 503.3 412.7 517.7 450.2 520.3C487.7 523 525.3 514 562.8 505.8C600.3 497.7 637.7 490.3 675.2 494C712.7 497.7 750.3 512.3 787.8 520.5C825.3 528.7 862.7 530.3 881.3 531.2L900 532L900 601L881.3 601C862.7 601 825.3 601 787.8 601C750.3 601 712.7 601 675.2 601C637.7 601 600.3 601 562.8 601C525.3 601 487.7 601 450.2 601C412.7 601 375.3 601 337.8 601C300.3 601 262.7 601 225.2 601C187.7 601 150.3 601 112.8 601C75.3 601 37.7 601 18.8 601L0 601Z" fill="#F2B705" stroke-linecap="round" stroke-linejoin="miter"></path></svg>