<svg id="visual" viewBox="0 0 900 600" width="900" height="600" xmlns="http://www.w3.org/2000/svg" xmlns:xlink="http://www.w3.org/1999/xlink" version="1.1"><path d="M0 67L21.5 68C43 69 86 71 128.8 76C171.7 81 214.3 89 257.2 83C300 77 343 57 385.8 57C428.7 57 471.3 77 514.2 82C557 87 600 77 642.8 75C685.7 73 728.3 79 771.2 72C814 65 857 45 878.5 35L900 25L900 0L878.5 0C857 0 814 0 771.2 0C728.3 0 685.7 0 642.8 0C600 0 557 0 514.2 0C471.3 0 428.7 0 385.8 0C343 0 300 0 257.2 0C214.3 0 171.7 0 128.8 0C86 0 43 0 21.5 0L0 0Z" fill="#79a7e5"></path><path d="M0 157L21.5 159C43 161 86 165 128.8 164C171.7 163 214.3 157 257.2 142C300 127 343 103 385.8 112C428.7 121 471.3 163 514.2 180C557 197 600 189 642.8 177C685.7 165 728.3 149 771.2 145C814 141 857 149 878.5 153L900 157L900 23L878.5 33C857 43 814 63 771.2 70C728.3 77 685.7 71 642.8 73C600 75 557 85 514.2 80C471.3 75 428.7 55 385.8 55C343 55 300 75 257.2 81C214.3 87 171.7 79 128.8 74C86 69 43 67 21.5 66L0 65Z" fill="#6097e0"></path><path d="M0 331L21.5 340C43 349 86 367 128.8 383C171.7 399 214.3 413 257.2 398C300 383 343 339 385.8 329C428.7 319 471.3 343 514.2 361C557 379 600 391 642.8 372C685.7 353 728.3 303 771.2 297C814 291 857 329 878.5 348L900 367L900 155L878.5 151C857 147 814 139 771.2 143C728.3 147 685.7 163 642.8 175C600 187 557 195 514.2 178C471.3 161 428.7 119 385.8 110C343 101 300 125 257.2 140C214.3 155 171.7 161 128.8 162C86 163 43 159 21.5 157L0 155Z" fill="#4588db"></path><path d="M0 415L21.5 419C43 423 86 431 128.8 438C171.7 445 214.3 451 257.2 435C300 419 343 381 385.8 377C428.7 373 471.3 403 514.2 418C557 433 600 433 642.8 418C685.7 403 728.3 373 771.2 371C814 369 857 395 878.5 408L900 421L900 365L878.5 346C857 327 814 289 771.2 295C728.3 301 685.7 351 642.8 370C600 389 557 377 514.2 359C471.3 341 428.7 317 385.8 327C343 337 300 381 257.2 396C214.3 411 171.7 397 128.8 381C86 365 43 347 21.5 338L0 329Z" fill="#3079cc"></path><path d="M0 481L21.5 483C43 485 86 489 128.8 498C171.7 507 214.3 521 257.2 522C300 523 343 511 385.8 507C428.7 503 471.3 507 514.2 510C557 513 600 515 642.8 509C685.7 503 728.3 489 771.2 492C814 495 857 515 878.5 525L900 535L900 419L878.5 406C857 393 814 367 771.2 369C728.3 371 685.7 401 642.8 416C600 431 557 431 514.2 416C471.3 401 428.7 371 385.8 375C343 379 300 417 257.2 433C214.3 449 171.7 443 128.8 436C86 429 43 421 21.5 417L0 413Z" fill="#296bb5"></path><path d="M0 601L21.5 601C43 601 86 601 128.8 601C171.7 601 214.3 601 257.2 601C300 601 343 601 385.8 601C428.7 601 471.3 601 514.2 601C557 601 600 601 642.8 601C685.7 601 728.3 601 771.2 601C814 601 857 601 878.5 601L900 601L900 533L878.5 523C857 513 814 493 771.2 490C728.3 487 685.7 501 642.8 507C600 513 557 511 514.2 508C471.3 505 428.7 501 385.8 505C343 509 300 521 257.2 520C214.3 519 171.7 505 128.8 496C86 487 43 483 21.5 481L0 479Z" fill="#235e9f"></path></svg>