<svg id="visual" viewBox="0 0 900 600" width="900" height="600" xmlns="http://www.w3.org/2000/svg" xmlns:xlink="http://www.w3.org/1999/xlink" version="1.1"><rect x="0" y="0" width="900" height="600" fill="#3480d8"></rect><path d="M0 516L21.5 518.5C43 521 86 526 128.8 524C171.7 522 214.3 513 257.2 512.3C300 511.7 343 519.3 385.8 523.2C428.7 527 471.3 527 514.2 525.7C557 524.3 600 521.7 642.8 516.3C685.7 511 728.3 503 771.2 503.7C814 504.3 857 513.7 878.5 518.3L900 523L900 601L878.5 601C857 601 814 601 771.2 601C728.3 601 685.7 601 642.8 601C600 601 557 601 514.2 601C471.3 601 428.7 601 385.8 601C343 601 300 601 257.2 601C214.3 601 171.7 601 128.8 601C86 601 43 601 21.5 601L0 601Z" fill="#fff" stroke-linecap="round" stroke-linejoin="miter"></path></svg>